/* XPM */
static char *_3012_35c370ac5079c997df3661766d2577ae4225a1e26f4663e7bd21873456f090d9[] = {
/* columns rows colors chars-per-pixel */
"32 32 22 1 ",
"  c #326599",
". c #326699",
"X c #336699",
"o c #346699",
"O c #346799",
"+ c #34679A",
"@ c #35679A",
"# c #35689A",
"$ c #36689A",
"% c #37689A",
"& c #37699A",
"* c #36689B",
"= c #37689B",
"- c #37699B",
"; c #38699B",
": c #386A9B",
"> c #396A9B",
", c #386A9C",
"< c #396A9C",
"1 c #396B9C",
"2 c #3A6B9C",
"3 c None",
/* pixels */
"333333333333XXXXXXXX333333333333",
"333333333XXXXXXXXXXXXXX333333333",
"33333333XXXXXXXXXXXXXXXX33333333",
"333333XXXXXXXXXXXXXXXXXXXX333333",
"33333XXXXXXXXXXXXXXXXXXXXXX33333",
"3333XXXXO---=.XXXX.*---+XXXX3333",
"333XXX$33333332oX<3333333$XXX333",
"333XX-33333333333333333333:XX333",
"33XXO3333>&-33333333-%,3333#XX33",
"3XXX>333OXXXX;3333<XXXXX3333XXX3",
"3XXX333;XXXXX.3333XXXXXX-333XXX3",
"3XXX333-XXXXXX1333XXXXXX@333XXX3",
"XXXX333-X3331X:333X=333.X333.XXX",
"XXXX333:X333<X-333.$333.X333.XXX",
"XXXX333:X333<X-333.$333.X333.XXX",
"XXXX333:X333<X-333.$333.X333.XXX",
"XXXX333:X333<X-333.$333.X333.XXX",
"XXXX333:X333<X-333.$333.X333.XXX",
"XXXX333:X333<X-333.$333.X333.XXX",
"XXXX333:X333<X-333.$333.X333.XXX",
"3XXX333:X333<X-333.$333.X333.XX3",
"3XXX333,X333:X2333.-333XX333 XX3",
"3XXXXXXXX333-XXXX.X;333XXXX.XXX3",
"33XXXXXXX>333XXXXXX333<XXXXXXX33",
"333XXXXXX;333$XXXX-333-XXXXXX333",
"333XXXXXX.33333--33333.XXXXXX333",
"3333XXXXXX+3333333333OXXXXXX3333",
"33333XXXXXXo1333333<oXXXXXX33333",
"333333XXXXXXXX##$@XXXXXXXX333333",
"33333333XXXXXXXXXXXXXXXX33333333",
"333333333XXXXXXXXXXXXXX333333333",
"333333333333XXXXXXXX333333333333"
};
