/* XPM */
static char *_818bb4463904e40abc1e2afc50599ef[] = {
/* columns rows colors chars-per-pixel */
"16 16 9 1 ",
"  c #336699",
". c #346699",
"X c #346799",
"o c #34679A",
"O c #35679A",
"+ c #35689A",
"@ c #36689A",
"# c #37699B",
"$ c None",
/* pixels */
"$$$$$      $$$$$",
"$$$          $$$",
"$$  XOXX XOO  $$",
"$ X$$$$$$$$$$X $",
"$ $$@X@$$@@@$$ $",
"  $$ X $$  O$$  ",
"  $$X$@$$@$@@$  ",
"  $$X$@$$ $@@$  ",
"  $$O$@$$@$@@$o ",
"  $$O$@$$ $@@$  ",
"  $$O$O$$ $@@$  ",
"$   @$O  @$@o  $",
"$    $$@O$$@   $",
"$$   @$$$$@   $$",
"$$$     O    $$$",
"$$$$$      $$$$$"
};
