/* XPM */
static char *_271_b099aaa535f08e07773a80ce67e389813f5cc76e1617c25eba61a54d1cdb6330[] = {
/* columns rows colors chars-per-pixel */
"64 64 45 1 ",
"  c #326598",
". c #326599",
"X c #326699",
"o c #336699",
"O c #346699",
"+ c #346799",
"@ c #34679A",
"# c #35679A",
"$ c #35689A",
"% c #36689A",
"& c #36689B",
"* c #36699B",
"= c #37699B",
"- c #38699B",
"; c #386A9B",
": c #396A9B",
"> c #386A9C",
", c #396A9C",
"< c #396B9C",
"1 c #3A6A9C",
"2 c #3A6B9C",
"3 c #3B6B9C",
"4 c #3B6B9D",
"5 c #3B6C9C",
"6 c #3B6C9D",
"7 c #3C6C9D",
"8 c #3C6D9D",
"9 c #3D6D9D",
"0 c #3D6D9E",
"q c #3E6D9E",
"w c #3D6E9E",
"e c #3E6E9E",
"r c #3F6E9E",
"t c #3F6F9E",
"y c #3F6F9F",
"u c #406F9F",
"i c #40709F",
"p c #41709F",
"a c #42709F",
"s c #4171A0",
"d c #4271A0",
"f c #4472A1",
"g c #4573A1",
"h c #4674A2",
"j c None",
/* pixels */
"jjjjjjjjjjjjjjjjjjjjjjjjjjjjoooooooojjjjjjjjjjjjjjjjjjjjjjjjjjjj",
"jjjjjjjjjjjjjjjjjjjjjjjoooooooooooooooooojjjjjjjjjjjjjjjjjjjjjjj",
"jjjjjjjjjjjjjjjjjjjjoooooooooooooooooooooooojjjjjjjjjjjjjjjjjjjj",
"jjjjjjjjjjjjjjjjjjoooooooooooooooooooooooooooojjjjjjjjjjjjjjjjjj",
"jjjjjjjjjjjjjjjjoooooooooooooooooooooooooooooooojjjjjjjjjjjjjjjj",
"jjjjjjjjjjjjjjoooooooooooooooooooooooooooooooooooojjjjjjjjjjjjjj",
"jjjjjjjjjjjjjoooooooooooooooooooooooooooooooooooooojjjjjjjjjjjjj",
"jjjjjjjjjjjjoooooooooooooooooooooooooooooooooooooooojjjjjjjjjjjj",
"jjjjjjjjjjjoooooooooooooooooooooooooooooooooooooooooojjjjjjjjjjj",
"jjjjjjjjjooooooooooooooooooooooooooooooooooooooooooooojjjjjjjjjj",
"jjjjjjjjjoooooooooooooooooooooooooooooooooooooooooooooojjjjjjjjj",
"jjjjjjjjoooooooo.:6q7d2u72.Xooooooooo.22e7d3y71 oooooooojjjjjjjj",
"jjjjjjjooooooX=pjjjjjjjjjjjj2.ooooX-pjjjjjjjjjjjj,.oooooojjjjjjj",
"jjjjjjoooooo@ajjjjjjjjjjjjjjjj=oo#jjjjjjjjjjjjjjjjj%oooooojjjjjj",
"jjjjjoooooo=jjjjjjjjjjjjjjjjjjj3=jjjjjjjjjjjjjjjjjjj,oooooojjjjj",
"jjjjjooooo#jjjjjjjjjjjjjjjjjjjjjjjjjjjjjjjjjjjjjjjjjj;ooooojjjjj",
"jjjjooooo.jjjjjjjjjji6ujjjjjjjjjjjjjjjjjju3ujjjjjjjjjj+ooooojjjj",
"jjjjooooo,jjjjjjju%.ooo.o6jjjjjjjjjjjjt#Xooo.+6jjjjjjjiooooojjjj",
"jjjoooooXjjjjjjj,Xoooooooo$jjjjjjjjjj-ooooooooo=jjjjjjjoooooojjj",
"jjjooooo%jjjjjjeXoooooooooo>jjjjjjjj9ooooooooooo2jjjjjj7ooooojjj",
"jjoooooo2jjjjjj+ooooooooooo.jjjjjjjjOooooooooooo.jjjjjjeoooooojj",
"jjooooooqjjjjjjXoooooooooooo8jjjjjjjooooooooooooo0jjjjjj.ooooojj",
"jjoooooojjjjjjeooooooooooooo>jjjjjj9ooooooooooooo<jjjjjjXooooojj",
"joooooo.jjjjjj7oooooooooXooo.jjjjjj6oooooooooXooo#jjjjjjXooooooj",
"jooooooojjjjjj,ooo7jjjjjgooo.jjjjjj>ooXjjjjjjsooo.jjjjjj.ooooooj",
"jooooooXjjjjjjtooo6jjjjjfoooXjjjjjjeooX0jjjjjioooXjjjjjj ooooooj",
"jooooooXjjjjjjeooo6jjjjjfoooXjjjjjj9ooX0jjjjjioooXjjjjjj ooooooj",
"oooooooXjjjjjjeooo6jjjjjfoooXjjjjjj9ooX0jjjjjioooXjjjjjj ooooooj",
"oooooooXjjjjjjeooo6jjjjjfoooXjjjjjj9ooX0jjjjjioooXjjjjjj ooooooo",
"oooooooXjjjjjjeooo6jjjjjfoooXjjjjjj9ooX0jjjjjioooXjjjjjj ooooooo",
"oooooooXjjjjjjeooo6jjjjjfoooXjjjjjj9ooX0jjjjjioooXjjjjjj ooooooo",
"oooooooXjjjjjjeooo6jjjjjfoooXjjjjjj9ooX0jjjjjioooXjjjjjj ooooooo",
"oooooooXjjjjjjeooo6jjjjjfoooXjjjjjj9ooX0jjjjjioooXjjjjjj ooooooo",
"oooooooXjjjjjjeooo6jjjjjfoooXjjjjjj9ooX0jjjjjioooXjjjjjj ooooooo",
"oooooooXjjjjjjeooo6jjjjjfoooXjjjjjj9ooX0jjjjjioooXjjjjjj ooooooo",
"oooooooXjjjjjjeooo6jjjjjfoooXjjjjjj9ooX0jjjjjioooXjjjjjj ooooooo",
"oooooooXjjjjjjeooo6jjjjjfoooXjjjjjj9ooX0jjjjjioooXjjjjjj ooooooj",
"jooooooXjjjjjjeooo6jjjjjfoooXjjjjjj9ooX0jjjjjioooXjjjjjj ooooooj",
"jooooooXjjjjjjeooo6jjjjjfoooXjjjjjj9ooX0jjjjjioooXjjjjjj ooooooj",
"jooooooXjjjjjjeooo6jjjjjfoooXjjjjjj9ooX0jjjjjioooXjjjjjj ooooooj",
"jooooooXjjjjjjeooo6jjjjjfoooXjjjjjj9ooX0jjjjjioooXjjjjjj ooooooj",
"jjoooooXjjjjjjeooo6jjjjjfoooXjjjjjj9ooX0jjjjjioooXjjjjjj ooooojj",
"jjoooooXjjjjjjeooo5jjjjjhoooXjjjjjj9ooXejjjjjioooXjjjjjj ooooojj",
"jjoooooXjjjjjjeooo%jjjjj0ooo.jjjjjj9oo.jjjjjj0ooo.jjjjjj ooooojj",
"jjjoooooXXXXXXXooo8jjjjjjXooo......ooo.jjjjjj2oooo.XXXX.ooooojjj",
"jjjooooooooooooooo8jjjjjjXoooooooooooo.jjjjjj2ooooooooooooooojjj",
"jjjjoooooooooooooo,jjjjjj%oooooooooooo&jjjjjj=oooooooooooooojjjj",
"jjjjoooooooooooooo.jjjjjj0oooooooooooo7jjjjjj.oooooooooooooojjjj",
"jjjjjoooooooooooooXjjjjjjj@oooooooooo#jjjjjjjoooooooooooooojjjjj",
"jjjjjoooooooooooooo7jjjjjjj#ooooooooOjjjjjjj2oooooooooooooojjjjj",
"jjjjjjooooooooooooo jjjjjjjj6+XXXX+wjjjjjjjj.ooooooooooooojjjjjj",
"jjjjjjjooooooooooooo:jjjjjjjjjjjjjjjjjjjjjj-ooooooooooooojjjjjjj",
"jjjjjjjjooooooooooooX9jjjjjjjjjjjjjjjjjjjj5ooooooooooooojjjjjjjj",
"jjjjjjjjoooooooooooooX7jjjjjjjjjjjjjjjjjj6ooooooooooooojjjjjjjjj",
"jjjjjjjjjoooooooooooooo-jjjjjjjjjjjjjjjj*oooooooooooooojjjjjjjjj",
"jjjjjjjjjjoooooooooooooo ,rjjjjjjjjjjy-.ooooooooooooojjjjjjjjjjj",
"jjjjjjjjjjjjoooooooooooooooX#34%,32oXooooooooooooooojjjjjjjjjjjj",
"jjjjjjjjjjjjjoooooooooooooooooooooooooooooooooooooojjjjjjjjjjjjj",
"jjjjjjjjjjjjjjoooooooooooooooooooooooooooooooooooojjjjjjjjjjjjjj",
"jjjjjjjjjjjjjjjjoooooooooooooooooooooooooooooooojjjjjjjjjjjjjjjj",
"jjjjjjjjjjjjjjjjjjoooooooooooooooooooooooooooojjjjjjjjjjjjjjjjjj",
"jjjjjjjjjjjjjjjjjjjjoooooooooooooooooooooooojjjjjjjjjjjjjjjjjjjj",
"jjjjjjjjjjjjjjjjjjjjjjjoooooooooooooooooojjjjjjjjjjjjjjjjjjjjjjj",
"jjjjjjjjjjjjjjjjjjjjjjjjjjjoooooooooojjjjjjjjjjjjjjjjjjjjjjjjjjj"
};
