/* XPM */
static char *_1bd6db18a364767ddf0c4e07c7ee2c4[] = {
/* columns rows colors chars-per-pixel */
"128 128 92 1 ",
"  c #306497",
". c #306498",
"X c #316498",
"o c #316598",
"O c #326598",
"+ c #326599",
"@ c #326699",
"# c #336699",
"$ c #346699",
"% c #346799",
"& c #35679A",
"* c #36689A",
"= c #37689A",
"- c #36699A",
"; c #37699A",
": c #37689B",
"> c #37699B",
", c #38699B",
"< c #386A9B",
"1 c #396A9B",
"2 c #396A9C",
"3 c #396B9C",
"4 c #3A6B9C",
"5 c #3B6B9C",
"6 c #3B6C9D",
"7 c #3C6C9D",
"8 c #3D6C9D",
"9 c #3C6D9D",
"0 c #3D6D9D",
"q c #3D6D9E",
"w c #3E6D9E",
"e c #3E6E9E",
"r c #3F6E9E",
"t c #3F6F9E",
"y c #3F6E9F",
"u c #3F6F9F",
"i c #406F9E",
"p c #406F9F",
"a c #416F9F",
"s c #40709F",
"d c #41709F",
"f c #42709F",
"g c #43709F",
"h c #42719F",
"j c #4170A0",
"k c #4171A0",
"l c #4270A0",
"z c #4271A0",
"x c #4371A0",
"c c #4372A0",
"v c #4372A1",
"b c #4472A1",
"n c #4572A1",
"m c #4473A1",
"M c #4573A1",
"N c #4574A2",
"B c #4674A2",
"V c #4774A2",
"C c #4775A2",
"Z c #4775A3",
"A c #4875A2",
"S c #4874A3",
"D c #4875A3",
"F c #4975A3",
"G c #4876A3",
"H c #4976A3",
"J c #4A76A3",
"K c #4A77A4",
"L c #4B77A4",
"P c #4C77A4",
"I c #4C78A4",
"U c #4D78A4",
"Y c #4C78A5",
"T c #4D79A5",
"R c #4E79A6",
"E c #4F7AA6",
"W c #4F7AA7",
"Q c #507BA6",
"! c #517BA6",
"~ c #517BA7",
"^ c #517CA7",
"/ c #527CA7",
"( c #527DA8",
") c #537DA8",
"_ c #537EA9",
"` c #557EA9",
"' c #587FA9",
"] c #5881AA",
"[ c #5D84AC",
"{ c #5D85AC",
"} c #6086AE",
"| c None",
/* pixels */
"||||||||||||||||||||||||||||||||||||||||||||||||||||||||||||########||||||||||||||||||||||||||||||||||||||||||||||||||||||||||||",
"||||||||||||||||||||||||||||||||||||||||||||||||||||########################||||||||||||||||||||||||||||||||||||||||||||||||||||",
"||||||||||||||||||||||||||||||||||||||||||||||||################################||||||||||||||||||||||||||||||||||||||||||||||||",
"||||||||||||||||||||||||||||||||||||||||||||########################################||||||||||||||||||||||||||||||||||||||||||||",
"|||||||||||||||||||||||||||||||||||||||||##############################################|||||||||||||||||||||||||||||||||||||||||",
"|||||||||||||||||||||||||||||||||||||||##################################################|||||||||||||||||||||||||||||||||||||||",
"|||||||||||||||||||||||||||||||||||||######################################################|||||||||||||||||||||||||||||||||||||",
"|||||||||||||||||||||||||||||||||||##########################################################|||||||||||||||||||||||||||||||||||",
"|||||||||||||||||||||||||||||||||##############################################################|||||||||||||||||||||||||||||||||",
"|||||||||||||||||||||||||||||||##################################################################|||||||||||||||||||||||||||||||",
"|||||||||||||||||||||||||||||#####################################################################||||||||||||||||||||||||||||||",
"||||||||||||||||||||||||||||########################################################################||||||||||||||||||||||||||||",
"|||||||||||||||||||||||||||##########################################################################|||||||||||||||||||||||||||",
"|||||||||||||||||||||||||##############################################################################|||||||||||||||||||||||||",
"||||||||||||||||||||||||################################################################################||||||||||||||||||||||||",
"|||||||||||||||||||||||##################################################################################|||||||||||||||||||||||",
"||||||||||||||||||||||####################################################################################||||||||||||||||||||||",
"||||||||||||||||||||#######################################################################################|||||||||||||||||||||",
"|||||||||||||||||||#########################################################################################||||||||||||||||||||",
"||||||||||||||||||###########################################################################################|||||||||||||||||||",
"|||||||||||||||||#############################################################################################||||||||||||||||||",
"|||||||||||||||||##############################################################################################|||||||||||||||||",
"||||||||||||||||#####################O#OO###O#################################&OO ##O####O######################||||||||||||||||",
"|||||||||||||||###################4mD||||||||||||Ytl #######################4Cm||||||||||||DctO##################|||||||||||||||",
"||||||||||||||#################tD|||||||||||||||||||||m&#################mD|||||||||||||||||||||p*################||||||||||||||",
"|||||||||||||###############&c|||||||||||||||||||||||||||p.###########*D||||||||||||||||||||||||||Dt###############|||||||||||||",
"|||||||||||||##############D|||||||||||||||||||||||||||||||t########&C|||||||||||||||||||||||||||||||<#############|||||||||||||",
"||||||||||||#############4||||||||||||||||||||||||||||||||||K######t||||||||||||||||||||||||||||||||||m ############||||||||||||",
"|||||||||||#############d|||||||||||||||||||||||||||||||||||||*##Om|||||||||||||||||||||||||||||||||||||&############|||||||||||",
"||||||||||#############D|||||||||||||||||||||||||||||||||||||||6#^|||||||||||||||||||||||||||||||||||||||*###########|||||||||||",
"||||||||||############p|||||||||||||||||||||||||||||||||||||||||D|||||||||||||||||||||||||||||||||||||||||############||||||||||",
"|||||||||############t|||||||||||||||||||||||||||||||||||||||||||||||||||||||||||||||||||||||||||||||||||||############|||||||||",
"|||||||||############||||||||||||||||||||||||||||||||||||||||||||||||||||||||||||||||||||||||||||||||||||||D###########|||||||||",
"||||||||############R|||||||||||||||||Dmt#O##&cc||||||||||||||||||||||||||||||||Dlt####4mc||||||||||||||||||4###########||||||||",
"||||||||###########t||||||||||||||||p#############c||||||||||||||||||||||||||!t.###########*m||||||||||||||||###########||||||||",
"|||||||########### |||||||||||||||d#################R|||||||||||||||||||||||6###############&&)||||||||||||||p###########|||||||",
"|||||||###########<||||||||||||||<###################c|||||||||||||||||||||*################## J||||||||||||||###########|||||||",
"||||||############C|||||||||||||4#####################c|||||||||||||||||||*###################& D|||||||||||||*###########||||||",
"||||||############|||||||||||||t#######################R|||||||||||||||||4#######################|||||||||||||K###########||||||",
"|||||############p|||||||||||||########################*||||||||||||||||D########################t|||||||||||||############|||||",
"|||||############c||||||||||||4#########################C|||||||||||||||*#########################|||||||||||||############|||||",
"||||#############|||||||||||||##########################4|||||||||||||||##########################p||||||||||||p############||||",
"||||############O||||||||||||c###########################||||||||||||||d###########################||||||||||||K############||||",
"||||#############||||||||||||p###########################D|||||||||||||<###########################R|||||||||||C############||||",
"|||#############&||||||||||||############################t|||||||||||||############################c||||||||||||#############|||",
"|||#############d||||||||||||O###########################t|||||||||||||O###########################t||||||||||||#############|||",
"|||#############d||||||||||||############################O||||||||||||K############################t|||||||||||| ############|||",
"||##############D|||||||||||C###################O#########||||||||||||m##################& ########.||||||||||||#############|||",
"||##############*|||||||||||m########||||||||||||########.||||||||||||d#######t||||||||||||########O||||||||||||.#############||",
"||##############t|||||||||||d########||||||||||||O########||||||||||||u#######t|||||||||||[.#######O||||||||||||##############||",
"||##############l|||||||||||Q########||||||||||||O########||||||||||||K#######5|||||||||||[.########|||||||||||| #############||",
"|###############p|||||||||||R#######O||||||||||||#########||||||||||||D#######t|||||||||||}.########||||||||||||.#############||",
"|###############g|||||||||||R#######O||||||||||||########.||||||||||||D*######5|||||||||||[.&&######||||||||||||.##############|",
"|###############g|||||||||||I#######O|||||||||||| ########||||||||||||D#######t|||||||||||[.#######.||||||||||||.##############|",
"|###############g|||||||||||R@#######||||||||||||#########||||||||||||D#######5|||||||||||[ ########||||||||||||.##############|",
"|###############g|||||||||||I@######O||||||||||||O########||||||||||||D&######t|||||||||||[########.||||||||||||.&#############|",
"|###############g|||||||||||I%######O||||||||||||O########||||||||||||D#######5|||||||||||[.#######.||||||||||||###############|",
"|###############g|||||||||||R########||||||||||||#########||||||||||||D#######t|||||||||||[.########|||||||||||| ##############|",
"################g|||||||||||I#######O||||||||||||#########||||||||||||D*######5|||||||||||[.#######.||||||||||||.##############|",
"################g|||||||||||R########|||||||||||| ########||||||||||||D#######t|||||||||||[.########||||||||||||.##############|",
"################g|||||||||||R&######O||||||||||||#########||||||||||||D#######5|||||||||||[#########||||||||||||.&##############",
"################g|||||||||||R########||||||||||||O#######.||||||||||||D&######t|||||||||||[.#######.||||||||||||.&##############",
"################g|||||||||||I#######O||||||||||||O#######.||||||||||||D#######5|||||||||||[.########|||||||||||| ###############",
"################g|||||||||||RO######O||||||||||||#########||||||||||||D#######t|||||||||||[.######&#|||||||||||| ###############",
"################c|||||||||||I########||||||||||||.########||||||||||||D#######t|||||||||||[#######..||||||||||||################",
"################c|||||||||||I#######O||||||||||||#########||||||||||||K#######t|||||||||||[ ######&&||||||||||||.&##############",
"################l|||||||||||R%######O||||||||||||#########||||||||||||D#######5|||||||||||[.#######.|||||||||||| ###############",
"################m|||||||||||I%#######||||||||||||#######+.||||||||||||K#######t|||||||||||[.#######.||||||||||||.###############",
"################p|||||||||||I%%#####O||||||||||||#######+#||||||||||||D%######5|||||||||||[.&&####&.||||||||||||.&#############|",
"################g|||||||||||I%#######||||||||||||#######&#||||||||||||D#######t|||||||||||[.########|||||||||||| #&.###########|",
"|###############g|||||||||||I%######O||||||||||||.########||||||||||||K#######5|||||||||||[ #######.||||||||||||.O&&###########|",
"|###############g|||||||||||I########|||||||||||| ########||||||||||||D*######t|||||||||||[#######&&||||||||||||.&.&###########|",
"|###############g|||||||||||Q%######O||||||||||||########.||||||||||||D#######5|||||||||||[.#######.||||||||||||###############|",
"|###############g|||||||||||R#######O||||||||||||O########||||||||||||D#######t|||||||||||[.######&#|||||||||||| ##############|",
"|###############g|||||||||||I########||||||||||||O########||||||||||||D*######5|||||||||||[.#######.||||||||||||.##############|",
"|###############g|||||||||||R%######O||||||||||||#########||||||||||||D#######t|||||||||||[.#####&&.||||||||||||.##############|",
"|###############g|||||||||||R#######O||||||||||||########.||||||||||||D#######5|||||||||||[########.||||||||||||.&############||",
"||##############g|||||||||||K#######O|||||||||||| ########||||||||||||D&######t|||||||||||[ #######&||||||||||||.&############||",
"||##############g|||||||||||R@#######||||||||||||#########||||||||||||D#######5|||||||||||[.#######.|||||||||||| #############||",
"||############&&g|||||||||||I@######O||||||||||||O########||||||||||||D#######t|||||||||||}.#######.|||||||||||| #############||",
"||##############g|||||||||||I%######O||||||||||||#########||||||||||||K#######5|||||||||||[ #######.||||||||||||.O&.#########|||",
"|||#############g|||||||||||R########||||||||||||O########||||||||||||D#######t|||||||||||[#########||||||||||||.&&&#########|||",
"|||#############g|||||||||||I%######O||||||||||||#########||||||||||||K#######5|||||||||||[.########|||||||||||| #.&#########|||",
"|||#############g|||||||||||R########||||||||||||O########||||||||||||D#######5|||||||||||[ ########|||||||||||| ############|||",
"||||############g|||||||||||R#######O||||||||||||#########||||||||||||K#######t|||||||||||[O########||||||||||||.&&&.&######||||",
"||||############g|||||||||||R########||||||||||||########.||||||||||||D#######t|||||||||||[########.||||||||||||.O.&########||||",
"||||############g|||||||||||RO#######||||||||||||########.||||||||||||K#######Z|||||||||||]O########||||||||||||.O&O########||||",
"|||||###########d|||||||||||D&#######||||||||||||d########'|||||||||||C#######4|||||||||||D#######&.||||||||||||.&O&#######|||||",
"|||||############OOOOOOOOOO##########}|||||||||||t######### # OO#O # .########c|||||||||||l#########..# #OOOOOOO###########|||||",
"||||||###############################||||||||||||c############################c|||||||||||R#########&##&##################||||||",
"||||||###############################R|||||||||||D############################K|||||||||||m###############################||||||",
"||||||###############################m||||||||||||############################||||||||||||c##############################|||||||",
"|||||||##############################t||||||||||||###########################.||||||||||||p##############################|||||||",
"|||||||##############################t||||||||||||t##########################c||||||||||||##############################||||||||",
"||||||||#############################O||||||||||||c##########################R||||||||||||##############################||||||||",
"|||||||||#############################|||||||||||||&########################>|||||||||||||#############################|||||||||",
"|||||||||#############################D||||||||||||D########################R||||||||||||c#############################|||||||||",
"||||||||||############################4|||||||||||||5&#####################t|||||||||||||*############################||||||||||",
"||||||||||#############################||||||||||||||&####################4||||||||||||||#############################||||||||||",
"|||||||||||############################c||||||||||||||4#################&*||||||||||||||t############################|||||||||||",
"||||||||||||########################### |||||||||||||||m################m|||||||||||||||############################||||||||||||",
"||||||||||||############################c||||||||||||||||m<O#########4C||||||||||||||||t###########################|||||||||||||",
"|||||||||||||############################||||||||||||||||||||mD<<Dm|||||||||||||||||||) ###########################|||||||||||||",
"||||||||||||||###########################*||||||||||||||||||||||||||||||||||||||||||||############################||||||||||||||",
"|||||||||||||||###########################t||||||||||||||||||||||||||||||||||||||||||4###########################|||||||||||||||",
"||||||||||||||||###########################p||||||||||||||||||||||||||||||||||||||||t###########################||||||||||||||||",
"||||||||||||||||############################t||||||||||||||||||||||||||||||||||||||*###########################|||||||||||||||||",
"|||||||||||||||||############################4||||||||||||||||||||||||||||||||||||4############################|||||||||||||||||",
"||||||||||||||||||############################&!||||||||||||||||||||||||||||||||C#############################||||||||||||||||||",
"|||||||||||||||||||#############################p|||||||||||||||||||||||||||||~4#############################|||||||||||||||||||",
"||||||||||||||||||||############################&O4D||||||||||||||||||||||||C&##############################||||||||||||||||||||",
"|||||||||||||||||||||################################pC||||||||||||||||||mt##&############################||||||||||||||||||||||",
"|||||||||||||||||||||||################################.#6cct!C#|(Dmpd<OO################################|||||||||||||||||||||||",
"||||||||||||||||||||||||########################################&&#&##&#################################||||||||||||||||||||||||",
"|||||||||||||||||||||||||##############################################################################|||||||||||||||||||||||||",
"||||||||||||||||||||||||||###########################################################################|||||||||||||||||||||||||||",
"||||||||||||||||||||||||||||########################################################################||||||||||||||||||||||||||||",
"|||||||||||||||||||||||||||||######################################################################|||||||||||||||||||||||||||||",
"|||||||||||||||||||||||||||||||##################################################################|||||||||||||||||||||||||||||||",
"|||||||||||||||||||||||||||||||||##############################################################|||||||||||||||||||||||||||||||||",
"||||||||||||||||||||||||||||||||||###########################################################|||||||||||||||||||||||||||||||||||",
"||||||||||||||||||||||||||||||||||||#######################################################|||||||||||||||||||||||||||||||||||||",
"|||||||||||||||||||||||||||||||||||||||##################################################|||||||||||||||||||||||||||||||||||||||",
"|||||||||||||||||||||||||||||||||||||||||##############################################|||||||||||||||||||||||||||||||||||||||||",
"||||||||||||||||||||||||||||||||||||||||||||########################################||||||||||||||||||||||||||||||||||||||||||||",
"|||||||||||||||||||||||||||||||||||||||||||||||##################################|||||||||||||||||||||||||||||||||||||||||||||||",
"|||||||||||||||||||||||||||||||||||||||||||||||||||##########################|||||||||||||||||||||||||||||||||||||||||||||||||||",
"||||||||||||||||||||||||||||||||||||||||||||||||||||||||||############||||||||||||||||||||||||||||||||||||||||||||||||||||||||||"
};
