/* XPM */
static char * umkoin64_xpm[] = {
"64 42 2 1",
" 	c None",
".	c #708EA1",
"                                                                ",
"                                                                ",
"    .                                             ......        ",
"    ..       ...                                  .......       ",
"   ......  .....                                  ....  ..      ",
"    .  .   .  ..                           ...........   .      ",
"    .. .     .. ..............         .  ............   .      ",
"      ..        ........... ...        ..............    ..     ",
"     ..    .     ...... ..  ..     ................      ..     ",
"    ..     . .    ........        ..................     .      ",
"   ..        .    .........      ...................     .      ",
"  ..         .   ........       .................        .      ",
" ..          .   .......        ............. ..        ..      ",
" .          ..    ...  .       ..........      ...      ..      ",
"  .       ...  .     ..        .. ......        .. ...  .       ",
"   ..  ....     .      .....       .....         .....  .       ",
"                .      .......     ....         ......  .       ",
"                ..      ......      ..              .  ..       ",
"                ..      ....                           ..       ",
"                ..      ..                            ..        ",
"                 .     ..                        .   ...        ",
"                 .     .                         .   ...        ",
"                  .    ..                        .   ...        ",
"                  ..   ..                 .     ..  ....        ",
"                   ... .. .                ..   ..  .  .        ",
"                     .... ..                .   .  ..  .        ",
"                        .  ..            .  ..  ....   ...      ",
"                        .  . ..         ..   .  ....   ...      ",
"                        .  .  ..       ..    .  .  .    ...     ",
"                        .  .    ...  ...     .  .  ..     ..    ",
"                        .  .      ....       .  .  ..      ..   ",
"                       ..  .                 .  .   .      ..   ",
"                       .   .                 .  .   .           ",
"                       .   .                 .  .   .           ",
"                      ..   .                ..  .   .           ",
"                      .    .                ..  .  ..           ",
"                     ..   ..                .   .  .            ",
"                     .   ..                ..   .. .            ",
"                                           .                    ",
"                                           .                    ",
"                                                                ",
"                                                                "};
