/* XPM */
static char * umkoin16_xpm[] = {
"16 11 2 1",
" 	c None",
".	c #708EA1",
"             .  ",
" .         ...  ",
"    ...  ....   ",
"     .  .....   ",
"      .  .   .  ",
"                ",
"             .  ",
"              . ",
"                ",
"                ",
"                "};
