/* XPM */
static char * umkoin128_xpm[] = {
"128 128 2 1",
" 	c None",
".	c #708EA1",
"                                                                                                                                ",
"                                                                                                                                ",
"                                                                                                                                ",
"                                                                                                                                ",
"                                                                                                                                ",
"                                                                                                                                ",
"                                                                                                                                ",
"                                                                                                                                ",
"                                                                                                                                ",
"                                                                                                                                ",
"                                                                                                                                ",
"                                                                                                                                ",
"                                                                                                                                ",
"                                                                                                                                ",
"                                                                                                                                ",
"                                                                                                                                ",
"                                                                                                                                ",
"                                                                                                                                ",
"                                                                                                                                ",
"                                                                                                                                ",
"                                                                                                                                ",
"                                                                                                                                ",
"                                                                                                                                ",
"                                                                                                                                ",
"                                                                                                                                ",
"                                                                                                                                ",
"                                                                                                                                ",
"         .                                                                                          .............               ",
"        ...                                                                                         .............               ",
"       .....   ..        .......                                                                   ...............              ",
"      ...........       .........                                                                  .. .......   ...             ",
"      ...  ......      ....  ...                                                                       ......    ...            ",
"       ...   ....     ...    ...                                                       .....................      ..            ",
"        ...   ...           ...                                                      .......................      ...           ",
"         ...  ..           ...  ..........         ....  ...                   .    ........................      ...           ",
"          .. ...           ..   .............................                 ..   ........................        ..           ",
"            ...                   ...........................                ..  .........................         ..           ",
"            ...                  ........ ..........    .....                ......................... ...         ..           ",
"           ...                  ....................    .....          ..............................   ..         ..           ",
"          ...         ...  .        ...........  ...    ...  .       ..................................            ..           ",
"         ...         ...  ..        ................     .           ..................................            ..           ",
"        ....              ..        ................             .. ....................................          ...           ",
"       ....               ..        .................            .......................................          ...           ",
"      ....                ..       ..................             .....................................           ..            ",
"      ...                 ..      .................              ..................................               ..            ",
"     ...                  ..      ...............               ...................................               ..            ",
"    ...                   ..       .............                .................................                ...            ",
"  ....                   ...       ............                ....................   ....   ....                ..             ",
"  ...                    ...        ......   ...              ....................     ..    ...  ..             ..             ",
"                        ...   .      .....    ...             ....................           .. ....             ..             ",
"    ..   .            ....    ..        .....                 ...................             .....    .....    ...             ",
"    ...           .......     ...          ...     ..                ..........                      ......     ..              ",
"     .....     ........        ...           ..........               .........                   .........     ..              ",
"      .....    .....            ..             ..........              ........ .                ..........     ..              ",
"         ..                     ..            .............           ...........                ..........    ...              ",
"                                ...           ..............           ......                         .....    ...              ",
"                                ...            .............            ....                            ..     ..               ",
"                                 ..              ..........                                                    ..               ",
"                                 ..              .......                                                       ..               ",
"                                 ..             .......                                                       ...               ",
"                                 ..             .....                                                       .....               ",
"                                 ...            ....                                              ..       .....                ",
"                                 ...           ....                                               ..       .....                ",
"                                  ..          ...                                                 ..       .....                ",
"                                  ..          ...                                                ...      ......                ",
"                                  ...         ...                                                ...      ......                ",
"                                   ..          ..                                                ...      .. ..                 ",
"                                   ...         ..                                                ..      ... ..                 ",
"                                    ...        ..                                   ..           ..      ..  ..                 ",
"                                     ...       ..                                  ....          ..      ..  ..                 ",
"                                      ...      ..                                   .....        ..     ...  ..                 ",
"                                       ......  ..  ...                                ....       ..    ...   ..                 ",
"                                        ...... ..  ....                             .   ..       ..   ....   ...                ",
"                                           ... ...   ...                           ..   ...     ...  ....     ..  .             ",
"                                               ...    ....                        ...    ..     ... ....      .....             ",
"                                               ...     ....                       ..     ...    .......       ......            ",
"                                                ..      ....                     ...      ..    .......        .....            ",
"                                                ..   ..   ....                  ...       ...   ..... ..       ......           ",
"                                                ..   ...   ....                ...        ...   ...   ..       ......           ",
"                                                ..   ...     ....             ...         ...   ..    ...          ...          ",
"                                                ..   ...      ......        ....          ...   ..     ..           ...         ",
"                                                ..   ...        ...............           ...   ..     ..            ...        ",
"                                               ...   ...           ..........              ..   ..     ..             ..        ",
"                                               ...   ...              ....                ...   ..     ...            ...       ",
"                                               ..    ...                                  ...   ..      ..            ...       ",
"                                               ..     ..                                  ...   ..      ..            ...       ",
"                                              ...     ..                                  ..    ..      ..                      ",
"                                              ..      ..                                  ..    ...     ..                      ",
"                                              ..      ..                                  ..    ...     ..                      ",
"                                             ...      ..                                  ..    ...     ..                      ",
"                                             ..       ..                                 ...    ...     ..                      ",
"                                            ...      ...                                 ..     ...    ...                      ",
"                                            ..       ...                                 ..     ...    ..                       ",
"                                           ...       ..                                 ...     ...    ..                       ",
"                                           ..        ..                                 ..       ..    ..                       ",
"                                          ...       ...                                 ..       ..   ...                       ",
"                                          ..       ...                                 ...       ..   ..                        ",
"                                         ...       ...                                 ..        ..   ..                        ",
"                                          .        ..                                 ...        ..                             ",
"                                                                                      ..                                        ",
"                                                                                      ..                                        ",
"                                                                                                                                ",
"                                                                                                                                ",
"                                                                                                                                ",
"                                                                                                                                ",
"                                                                                                                                ",
"                                                                                                                                ",
"                                                                                                                                ",
"                                                                                                                                ",
"                                                                                                                                ",
"                                                                                                                                ",
"                                                                                                                                ",
"                                                                                                                                ",
"                                                                                                                                ",
"                                                                                                                                ",
"                                                                                                                                ",
"                                                                                                                                ",
"                                                                                                                                ",
"                                                                                                                                ",
"                                                                                                                                ",
"                                                                                                                                ",
"                                                                                                                                ",
"                                                                                                                                ",
"                                                                                                                                ",
"                                                                                                                                ",
"                                                                                                                                ",
"                                                                                                                                ",
"                                                                                                                                "};
