/* XPM */
static char * umkoin32_xpm[] = {
"32 21 2 1",
" 	c None",
".	c #708EA1",
"                                ",
"                          ..    ",
"  ..  ..                ... .   ",
"   .    .......     .......     ",
"  .      ....    .........      ",
" .       ....   .........       ",
"..    .  ...    .....  ..   .   ",
" .  ..      ..   ...    ...     ",
"        .   ...   .      .      ",
"            ..             .    ",
"        .               .  .    ",
"         .              . ..    ",
"          ...        .          ",
"              .     .   ..  .   ",
"               ..  .   .    ..  ",
"                       .     .. ",
"           .                    ",
"           . .        .         ",
"          .  .        .         ",
"                                ",
"                                "};
