<?xml version="1.0" standalone="no"?>
<!DOCTYPE svg PUBLIC "-//W3C//DTD SVG 20010904//EN"
 "http://www.w3.org/TR/2001/REC-SVG-20010904/DTD/svg10.dtd">
<svg version="1.0" xmlns="http://www.w3.org/2000/svg"
 width="1024.000000pt" height="1024.000000pt" viewBox="0 0 1024.000000 1024.000000"
 preserveAspectRatio="xMidYMid meet">
<metadata>
Created by potrace 1.15, written by Peter Selinger 2001-2017
</metadata>
<g transform="translate(0.000000,1024.000000) scale(0.100000,-0.100000)"
fill="#000000" stroke="none">
<path d="M4840 9834 c-379 -34 -564 -62 -840 -130 -1150 -282 -2147 -979
-2802 -1957 -690 -1032 -949 -2313 -713 -3525 161 -824 543 -1598 1101 -2232
98 -111 336 -348 444 -442 461 -398 1009 -708 1595 -903 1371 -457 2863 -265
4075 523 1615 1049 2429 2997 2045 4894 -80 396 -205 758 -395 1143 -252 512
-543 913 -950 1308 -508 493 -1108 857 -1785 1082 -486 162 -918 234 -1440
240 -159 1 -310 1 -335 -1z m-605 -1908 c191 -28 563 -125 573 -148 2 -4 12
-8 23 -8 11 0 27 -4 37 -8 233 -113 331 -170 431 -251 95 -78 200 -192 261
-284 l64 -96 35 21 c20 12 47 29 61 38 14 9 57 31 95 49 39 18 77 36 86 41 28
15 227 60 309 71 105 13 259 15 390 5 57 -4 107 -9 110 -11 3 -2 48 -10 100
-19 213 -37 448 -111 630 -199 36 -17 71 -37 78 -44 7 -7 18 -13 24 -13 6 0
41 -20 79 -45 290 -191 473 -440 550 -748 17 -67 34 -151 37 -187 13 -126 8
-315 -12 -440 -3 -14 -9 -56 -15 -95 -6 -38 -24 -126 -41 -195 -28 -115 -121
-507 -140 -590 -5 -19 -20 -84 -33 -145 -29 -127 -92 -397 -142 -605 -19 -80
-55 -228 -79 -330 -119 -505 -128 -540 -141 -540 -7 0 -73 14 -146 31 -74 17
-219 50 -322 73 -103 24 -191 46 -194 50 -4 4 1 39 11 79 10 39 35 149 57 242
21 94 58 253 83 355 24 102 67 284 96 405 28 121 72 306 97 410 24 105 55 238
68 296 13 58 42 179 64 270 60 248 76 356 76 534 0 131 -9 204 -37 293 -53
172 -161 306 -325 402 -46 28 -86 50 -89 50 -3 0 -26 10 -52 21 -25 12 -100
35 -167 51 -104 26 -139 30 -265 31 -119 1 -160 -3 -230 -21 -197 -52 -364
-194 -471 -402 -24 -47 -47 -87 -50 -90 -4 -3 -10 -21 -14 -40 -4 -19 -11 -39
-15 -45 -15 -20 -79 -244 -123 -430 -69 -290 -133 -562 -179 -755 -22 -96 -60
-256 -84 -355 -23 -99 -45 -196 -49 -215 -4 -19 -26 -116 -50 -215 -24 -99
-58 -242 -76 -317 -24 -102 -36 -138 -47 -138 -9 0 -88 18 -176 39 -89 21
-234 56 -324 77 -90 21 -168 41 -173 45 -6 3 4 63 26 155 19 82 54 228 76 324
53 225 118 500 169 715 23 94 47 199 55 235 13 63 45 198 140 590 25 102 49
218 55 259 6 40 12 76 14 80 8 13 18 151 17 252 -1 171 -49 346 -129 464 -28
41 -79 94 -148 154 -41 35 -221 134 -264 144 -14 3 -68 18 -120 32 -234 63
-472 49 -645 -38 -125 -62 -265 -212 -340 -362 -11 -22 -22 -42 -25 -45 -4 -3
-14 -27 -24 -55 -10 -27 -21 -59 -25 -70 -19 -49 -34 -93 -43 -130 -5 -22 -14
-49 -19 -60 -10 -20 -40 -143 -99 -405 -17 -74 -48 -207 -70 -295 -21 -88 -59
-250 -85 -360 -26 -110 -64 -272 -85 -360 -21 -88 -58 -248 -83 -355 -113
-479 -108 -462 -124 -456 -8 3 -76 20 -151 37 -75 17 -208 49 -295 70 -87 22
-166 39 -175 39 -41 1 -45 14 -28 86 9 38 39 166 67 284 27 118 69 298 93 400
24 102 65 275 91 385 26 110 64 272 85 360 53 220 94 396 146 624 25 107 49
202 54 211 5 10 14 39 20 66 6 27 20 74 31 104 12 30 31 80 42 110 31 80 119
250 158 304 19 26 46 65 62 86 45 63 184 195 262 250 166 114 381 197 562 216
32 4 60 8 63 11 5 5 383 -5 425 -11z m-230 -1470 c99 -24 234 -56 300 -70 140
-32 185 -45 185 -54 0 -4 -13 -63 -30 -132 -42 -175 -99 -417 -111 -470 -5
-25 -29 -128 -53 -230 -24 -102 -65 -275 -91 -385 -26 -110 -66 -281 -90 -380
-23 -99 -59 -252 -80 -340 -20 -88 -41 -173 -46 -190 -5 -16 -13 -61 -19 -100
-6 -38 -15 -97 -21 -130 -34 -205 -6 -493 60 -608 10 -18 29 -51 42 -73 76
-131 270 -273 449 -327 298 -91 535 -87 739 12 174 83 345 310 426 561 15 47
31 93 36 102 5 10 18 59 29 110 12 51 39 167 60 258 22 91 58 244 81 340 22
96 60 256 84 355 23 99 66 281 95 405 29 124 72 306 95 405 24 99 55 233 70
298 22 97 30 117 44 113 9 -3 77 -19 151 -36 74 -18 207 -49 295 -70 88 -21
172 -41 188 -45 32 -7 33 -11 7 -117 -11 -46 -40 -166 -64 -268 -24 -102 -65
-273 -90 -380 -25 -107 -59 -253 -76 -325 -17 -71 -44 -188 -61 -260 -16 -71
-42 -184 -58 -250 -16 -66 -50 -208 -75 -315 -73 -307 -114 -473 -125 -505 -5
-16 -15 -50 -22 -75 -11 -39 -26 -77 -68 -175 -38 -89 -86 -177 -133 -249 -40
-59 -145 -180 -207 -238 -110 -102 -221 -171 -394 -242 -35 -14 -122 -37 -192
-51 -16 -3 -41 -8 -55 -10 -85 -18 -174 -23 -315 -19 -165 4 -179 5 -280 24
-33 6 -91 15 -130 20 -124 17 -405 110 -565 187 -467 226 -719 580 -769 1078
-10 106 -4 264 14 383 9 53 20 122 25 152 9 59 34 171 79 363 16 67 51 212 76
322 26 110 67 281 90 380 24 99 64 270 90 380 26 110 62 263 80 340 18 77 43
183 55 235 12 52 32 138 45 190 12 52 26 107 29 123 4 15 10 27 14 27 4 0 88
-20 187 -44z"/>
</g>
</svg>
